<svg width="34" height="54" viewBox="0 0 34 54" fill="none" xmlns="http://www.w3.org/2000/svg">
  <path d="M20.8382 32.2533C20.8382 32.2533 21.1033 31.8857 21.6334 31.1505C22.1635 30.4153 22.4286 29.0086 22.4286 26.9304C22.4286 24.8522 21.8985 23.0779 20.8382 21.6075C19.7779 20.137 18.4985 19.4018 17 19.4018C15.5015 19.4018 14.2221 20.137 13.1619 21.6075C12.1016 23.0779 11.5715 24.8522 11.5715 26.9304C11.5715 29.0086 12.1016 30.7829 13.1619 32.2533C14.2221 33.7238 15.5015 34.459 17 34.459C18.4985 34.459 19.7779 33.7238 20.8382 32.2533ZM22.9163 18.7254C22.9163 18.7254 23.3228 19.2891 24.1356 20.4164C24.9485 21.5437 25.3549 23.7151 25.3549 26.9304C25.3549 30.1457 24.5421 32.8807 22.9163 35.1354C21.2906 37.39 19.3185 38.5173 17 38.5173C14.6816 38.5173 12.7095 37.39 11.0837 35.1354C9.45798 32.8807 8.64511 30.1457 8.64511 26.9304C8.64511 23.7151 9.45798 20.9801 11.0837 18.7254C12.7095 16.4708 14.6816 15.3435 17 15.3435C19.3185 15.3435 21.2906 16.4708 22.9163 18.7254ZM27.0726 12.9614C27.0726 12.9614 27.168 13.0937 27.3588 13.3584C27.5497 13.6231 27.6451 14.1279 27.6451 14.8729C27.6451 15.6179 27.4543 16.2551 27.0726 16.7845C26.6909 17.3138 26.2314 17.5785 25.6942 17.5785C25.157 17.5785 24.6976 17.3138 24.3159 16.7845C23.9342 16.2551 23.7433 15.6179 23.7433 14.8729C23.7433 14.1279 23.9342 13.4907 24.3159 12.9614C24.6976 12.432 25.157 12.1673 25.6942 12.1673C26.2314 12.1673 26.6909 12.432 27.0726 12.9614ZM18.6222 8.38836C18.6222 8.38836 18.3766 8.3908 17.8853 8.39571C17.3941 8.40061 17.099 8.40306 17 8.40306C16.9011 8.40306 16.3603 8.39816 15.3778 8.38836C14.3953 8.37855 13.6496 8.37855 13.1406 8.38836C12.6317 8.39816 11.9496 8.42757 11.0943 8.47658C10.239 8.5256 9.511 8.62362 8.91018 8.77066C8.30936 8.91771 7.80397 9.09906 7.394 9.31472C6.68715 9.70684 6.06513 10.2754 5.52792 11.0204C4.99072 11.7654 4.58075 12.6281 4.29801 13.6084C4.14251 14.1769 4.01174 14.8778 3.90571 15.7111C3.79969 16.5443 3.729 17.554 3.69366 18.7401C3.65832 19.9263 3.63711 20.8723 3.63004 21.5781C3.62298 22.2839 3.62298 23.3181 3.63004 24.6807C3.63711 26.0432 3.64065 26.7932 3.64065 26.9304C3.64065 27.0676 3.63711 27.8176 3.63004 29.1801C3.62298 30.5427 3.62298 31.5769 3.63004 32.2827C3.63711 32.9885 3.65832 33.9345 3.69366 35.1207C3.729 36.3068 3.79969 37.3165 3.90571 38.1497C4.01174 38.983 4.14251 39.6839 4.29801 40.2524C4.58075 41.2327 4.99072 42.0954 5.52792 42.8404C6.06513 43.5854 6.68715 44.154 7.394 44.5461C7.80397 44.7617 8.30936 44.9431 8.91018 45.0901C9.511 45.2372 10.239 45.3352 11.0943 45.3842C11.9496 45.4332 12.6317 45.4626 13.1406 45.4724C13.6496 45.4823 14.3953 45.4823 15.3778 45.4724C16.3603 45.4626 16.9011 45.4577 17 45.4577C17.099 45.4577 17.6397 45.4626 18.6222 45.4724C19.6047 45.4823 20.3505 45.4823 20.8594 45.4724C21.3683 45.4626 22.0504 45.4332 22.9057 45.3842C23.761 45.3352 24.489 45.2372 25.0899 45.0901C25.6907 44.9431 26.1961 44.7617 26.606 44.5461C27.3129 44.154 27.9349 43.5854 28.4721 42.8404C29.0093 42.0954 29.4193 41.2327 29.702 40.2524C29.8575 39.6839 29.9883 38.983 30.0943 38.1497C30.2004 37.3165 30.271 36.3068 30.3064 35.1207C30.3417 33.9345 30.3629 32.9885 30.37 32.2827C30.3771 31.5769 30.3771 30.5427 30.37 29.1801C30.3629 27.8176 30.3594 27.0676 30.3594 26.9304C30.3594 26.7932 30.3629 26.0432 30.37 24.6807C30.3771 23.3181 30.3771 22.2839 30.37 21.5781C30.3629 20.8723 30.3417 19.9263 30.3064 18.7401C30.271 17.554 30.2004 16.5443 30.0943 15.7111C29.9883 14.8778 29.8575 14.1769 29.702 13.6084C29.4193 12.6281 29.0093 11.7654 28.4721 11.0204C27.9349 10.2754 27.3129 9.70684 26.606 9.31472C26.1961 9.09906 25.6907 8.91771 25.0899 8.77066C24.489 8.62362 23.761 8.5256 22.9057 8.47658C22.0504 8.42757 21.3683 8.39816 20.8594 8.38836C20.3505 8.37855 19.6047 8.37855 18.6222 8.38836ZM33.1797 17.6079C33.2504 19.3332 33.2857 22.4407 33.2857 26.9304C33.2857 31.4201 33.2504 34.5276 33.1797 36.2529C33.0383 40.3309 32.1619 43.4874 30.5502 45.7224C28.9386 47.9575 26.6626 49.173 23.7221 49.3691C22.4781 49.4671 20.2374 49.5161 17 49.5161C13.7627 49.5161 11.522 49.4671 10.2779 49.3691C7.33745 49.173 5.06141 47.9575 3.4498 45.7224C1.83819 43.4874 0.961704 40.3309 0.820335 36.2529C0.749651 34.5276 0.714308 31.4201 0.714308 26.9304C0.714308 22.4407 0.749651 19.3332 0.820335 17.6079C0.961704 13.5299 1.83819 10.3734 3.4498 8.13838C5.06141 5.90334 7.33745 4.68779 10.2779 4.49173C11.522 4.3937 13.7627 4.34469 17 4.34469C20.2374 4.34469 22.4781 4.3937 23.7221 4.49173C26.6626 4.68779 28.9386 5.90334 30.5502 8.13838C32.1619 10.3734 33.0383 13.5299 33.1797 17.6079Z" fill="#E7598A" />
</svg>