<svg width="26" height="28" viewBox="0 0 26 28" fill="none" xmlns="http://www.w3.org/2000/svg">
  <path d="M9.46461 22.2868C9.46461 22.2868 9.56004 22.3822 9.75089 22.5731C9.94174 22.7639 10.0372 23.1205 10.0372 23.6428C10.0372 24.1652 9.84631 24.6172 9.46461 24.9989C9.08292 25.3806 8.63091 25.5714 8.10859 25.5714C7.58627 25.5714 7.13426 25.3806 6.75256 24.9989C6.37086 24.6172 6.18002 24.1652 6.18002 23.6428C6.18002 23.1205 6.37086 22.6685 6.75256 22.2868C7.13426 21.9051 7.58627 21.7143 8.10859 21.7143C8.63091 21.7143 9.08292 21.9051 9.46461 22.2868ZM22.9646 22.2868C22.9646 22.2868 23.06 22.3822 23.2509 22.5731C23.4417 22.7639 23.5372 23.1205 23.5372 23.6428C23.5372 24.1652 23.3463 24.6172 22.9646 24.9989C22.5829 25.3806 22.1309 25.5714 21.6086 25.5714C21.0863 25.5714 20.6343 25.3806 20.2526 24.9989C19.8709 24.6172 19.68 24.1652 19.68 23.6428C19.68 23.1205 19.8709 22.6685 20.2526 22.2868C20.6343 21.9051 21.0863 21.7143 21.6086 21.7143C22.1309 21.7143 22.5829 21.9051 22.9646 22.2868ZM25.4657 7.24998V14.9643C25.4657 15.2053 25.3829 15.4188 25.2171 15.6046C25.0514 15.7904 24.848 15.8984 24.6069 15.9286L8.877 17.7667C9.00758 18.3694 9.07287 18.721 9.07287 18.8214C9.07287 18.9821 8.95234 19.3036 8.71127 19.7857H22.5729C22.834 19.7857 23.06 19.8811 23.2509 20.072C23.4417 20.2628 23.5372 20.4888 23.5372 20.75C23.5372 21.0111 23.4417 21.2371 23.2509 21.428C23.06 21.6188 22.834 21.7143 22.5729 21.7143H7.1443C6.88314 21.7143 6.65714 21.6188 6.46629 21.428C6.27544 21.2371 6.18002 21.0111 6.18002 20.75C6.18002 20.6395 6.2202 20.4813 6.30055 20.2754C6.38091 20.0695 6.46127 19.8887 6.54162 19.733C6.62198 19.5773 6.72996 19.3764 6.86556 19.1303C7.00117 18.8842 7.07901 18.736 7.0991 18.6858L4.43225 6.2857H1.35859C1.09743 6.2857 0.871423 6.19027 0.680575 5.99942C0.489726 5.80857 0.394302 5.58257 0.394302 5.32141C0.394302 5.06025 0.489726 4.83424 0.680575 4.6434C0.871423 4.45255 1.09743 4.35712 1.35859 4.35712H5.21573C5.37645 4.35712 5.51958 4.38977 5.64514 4.45506C5.7707 4.52035 5.86863 4.5982 5.93895 4.6886C6.00926 4.779 6.07455 4.90205 6.13482 5.05774C6.19508 5.21343 6.23526 5.34401 6.25535 5.44948C6.27544 5.55495 6.30306 5.70311 6.33822 5.89395C6.37338 6.0848 6.39598 6.21538 6.40602 6.2857H24.5014C24.7626 6.2857 24.9886 6.38112 25.1795 6.57197C25.3703 6.76282 25.4657 6.98882 25.4657 7.24998Z" fill="#3C3C3C" />
</svg>