<svg width="17" height="21" viewBox="0 0 17 21" fill="none" xmlns="http://www.w3.org/2000/svg">
  <path d="M10.8667 15.5938V13.8959C10.8667 13.7968 10.8348 13.7155 10.7712 13.6518C10.7075 13.5881 10.6261 13.5563 10.5271 13.5563H9.50833V8.12294C9.50833 8.0239 9.4765 7.94254 9.41282 7.87887C9.34915 7.81519 9.26779 7.78336 9.16875 7.78336H5.77292C5.67387 7.78336 5.59251 7.81519 5.52884 7.87887C5.46517 7.94254 5.43333 8.0239 5.43333 8.12294V9.82086C5.43333 9.9199 5.46517 10.0013 5.52884 10.0649C5.59251 10.1286 5.67387 10.1604 5.77292 10.1604H6.79167V13.5563H5.77292C5.67387 13.5563 5.59251 13.5881 5.52884 13.6518C5.46517 13.7155 5.43333 13.7968 5.43333 13.8959V15.5938C5.43333 15.6928 5.46517 15.7742 5.52884 15.8379C5.59251 15.9015 5.67387 15.9334 5.77292 15.9334H10.5271C10.6261 15.9334 10.7075 15.9015 10.7712 15.8379C10.8348 15.7742 10.8667 15.6928 10.8667 15.5938ZM9.50833 6.08544V4.38753C9.50833 4.28848 9.4765 4.20712 9.41282 4.14345C9.34915 4.07978 9.26779 4.04794 9.16875 4.04794H7.13125C7.0322 4.04794 6.95085 4.07978 6.88717 4.14345C6.8235 4.20712 6.79167 4.28848 6.79167 4.38753V6.08544C6.79167 6.18449 6.8235 6.26585 6.88717 6.32952C6.95085 6.39319 7.0322 6.42502 7.13125 6.42502H9.16875C9.26779 6.42502 9.34915 6.39319 9.41282 6.32952C9.4765 6.26585 9.50833 6.18449 9.50833 6.08544ZM15.207 6.40911C15.207 6.40911 15.3891 6.72128 15.7535 7.34561C16.1178 7.96995 16.3 9.02142 16.3 10.5C16.3 11.9786 15.9357 13.3423 15.207 14.5909C14.4783 15.8396 13.4896 16.8283 12.2409 17.557C10.9922 18.2857 9.6286 18.65 8.15 18.65C6.6714 18.65 5.30776 18.2857 4.05908 17.557C2.81041 16.8283 1.82172 15.8396 1.09303 14.5909C0.364345 13.3423 0 11.9786 0 10.5C0 9.02142 0.364345 7.65778 1.09303 6.40911C1.82172 5.16043 2.81041 4.17175 4.05908 3.44306C5.30776 2.71437 6.6714 2.35003 8.15 2.35003C9.6286 2.35003 10.9922 2.71437 12.2409 3.44306C13.4896 4.17175 14.4783 5.16043 15.207 6.40911Z" fill="#3C3C3C" />
</svg>