<svg width="17" height="21" viewBox="0 0 17 21" fill="none" xmlns="http://www.w3.org/2000/svg">
  <path d="M3.76282 12.8828C3.76282 12.8828 3.82402 12.8216 3.94641 12.6992C4.06881 12.5768 4.13 12.3438 4.13 12C4.13 11.6562 4.00761 11.362 3.76282 11.1172C3.51803 10.8724 3.22375 10.75 2.88 10.75C2.53625 10.75 2.24198 10.8724 1.99719 11.1172C1.7524 11.362 1.63 11.6562 1.63 12C1.63 12.3438 1.7524 12.638 1.99719 12.8828C2.24198 13.1276 2.53625 13.25 2.88 13.25C3.22375 13.25 3.51803 13.1276 3.76282 12.8828ZM4.41125 9.5H12.3488L11.6534 6.71094C11.643 6.66927 11.6066 6.6237 11.5441 6.57422C11.4816 6.52474 11.4269 6.5 11.38 6.5H5.38C5.33313 6.5 5.27844 6.52474 5.21594 6.57422C5.15344 6.6237 5.11698 6.66927 5.10657 6.71094L4.41125 9.5ZM14.7628 12.8828C14.7628 12.8828 14.824 12.8216 14.9464 12.6992C15.0688 12.5768 15.13 12.3438 15.13 12C15.13 11.6562 15.0076 11.362 14.7628 11.1172C14.518 10.8724 14.2238 10.75 13.88 10.75C13.5363 10.75 13.242 10.8724 12.9972 11.1172C12.7524 11.362 12.63 11.6562 12.63 12C12.63 12.3438 12.7524 12.638 12.9972 12.8828C13.242 13.1276 13.5363 13.25 13.88 13.25C14.2238 13.25 14.518 13.1276 14.7628 12.8828ZM16.38 11.25V14.25C16.38 14.3229 16.3566 14.3828 16.3097 14.4297C16.2628 14.4766 16.2029 14.5 16.13 14.5H15.38V15.5C15.38 15.9167 15.2342 16.2708 14.9425 16.5625C14.6508 16.8542 14.2967 17 13.88 17C13.4633 17 13.1092 16.8542 12.8175 16.5625C12.5258 16.2708 12.38 15.9167 12.38 15.5V14.5H4.38V15.5C4.38 15.9167 4.23417 16.2708 3.9425 16.5625C3.65084 16.8542 3.29667 17 2.88 17C2.46334 17 2.10917 16.8542 1.8175 16.5625C1.52584 16.2708 1.38 15.9167 1.38 15.5V14.5H0.630005C0.557088 14.5 0.497192 14.4766 0.450317 14.4297C0.403442 14.3828 0.380005 14.3229 0.380005 14.25V11.25C0.380005 10.7656 0.550578 10.3529 0.891724 10.0117C1.23287 9.67057 1.64563 9.5 2.13 9.5H2.34875L3.16907 6.22656C3.28886 5.73698 3.55969 5.32682 3.98157 4.99609C4.40344 4.66536 4.86959 4.5 5.38 4.5H11.38C11.8904 4.5 12.3566 4.66536 12.7784 4.99609C13.2003 5.32682 13.4712 5.73698 13.5909 6.22656L14.4113 9.5H14.63C15.1144 9.5 15.5271 9.67057 15.8683 10.0117C16.2094 10.3529 16.38 10.7656 16.38 11.25Z" fill="#3C3C3C" />
</svg>