<svg width="28" height="31" viewBox="0 0 28 31" fill="none" xmlns="http://www.w3.org/2000/svg">
  <path d="M16.4729 9.27686V16.7769C16.4729 16.9331 16.4226 17.0615 16.3222 17.1619C16.2218 17.2623 16.0934 17.3126 15.9372 17.3126H10.58C10.4238 17.3126 10.2954 17.2623 10.195 17.1619C10.0945 17.0615 10.0443 16.9331 10.0443 16.7769V15.7054C10.0443 15.5492 10.0945 15.4208 10.195 15.3204C10.2954 15.2199 10.4238 15.1697 10.58 15.1697H14.33V9.27686C14.33 9.12061 14.3802 8.99226 14.4807 8.89181C14.5811 8.79136 14.7095 8.74114 14.8657 8.74114H15.9372C16.0934 8.74114 16.2218 8.79136 16.3222 8.89181C16.4226 8.99226 16.4729 9.12061 16.4729 9.27686ZM22.2151 19.74C22.2151 19.74 22.4187 19.3913 22.8261 18.6937C23.2335 17.9962 23.4372 16.8215 23.4372 15.1697C23.4372 13.5179 23.0298 11.9945 22.2151 10.5994C21.4003 9.20431 20.2954 8.0994 18.9003 7.28467C17.5052 6.46994 15.9818 6.06257 14.33 6.06257C12.6782 6.06257 11.1548 6.46994 9.7597 7.28467C8.36461 8.0994 7.2597 9.20431 6.44497 10.5994C5.63024 11.9945 5.22287 13.5179 5.22287 15.1697C5.22287 16.8215 5.63024 18.3449 6.44497 19.74C7.2597 21.1351 8.36461 22.24 9.7597 23.0548C11.1548 23.8695 12.6782 24.2769 14.33 24.2769C15.9818 24.2769 17.5052 23.8695 18.9003 23.0548C20.2954 22.24 21.4003 21.1351 22.2151 19.74ZM25.4628 8.71603C25.4628 8.71603 25.7502 9.2085 26.325 10.1934C26.8998 11.1784 27.1872 12.8371 27.1872 15.1697C27.1872 17.5023 26.6124 19.6535 25.4628 21.6234C24.3133 23.5933 22.7536 25.153 20.7837 26.3025C18.8138 27.4521 16.6626 28.0269 14.33 28.0269C11.9974 28.0269 9.8462 27.4521 7.87633 26.3025C5.90646 25.153 4.34675 23.5933 3.1972 21.6234C2.04765 19.6535 1.47287 17.5023 1.47287 15.1697C1.47287 12.8371 2.04765 10.6859 3.1972 8.71603C4.34675 6.74616 5.90646 5.18645 7.87633 4.0369C9.8462 2.88735 11.9974 2.31257 14.33 2.31257C16.6626 2.31257 18.8138 2.88735 20.7837 4.0369C22.7536 5.18645 24.3133 6.74616 25.4628 8.71603Z" fill="#A33D5F" />
</svg>