<svg width="15" height="21" viewBox="0 0 15 21" fill="none" xmlns="http://www.w3.org/2000/svg">
  <path d="M14.2812 3.58594C14.4531 3.71094 14.5234 3.8776 14.4922 4.08594L12.4922 16.0859C12.4661 16.237 12.3828 16.3542 12.2422 16.4375C12.1693 16.4792 12.0885 16.5 12 16.5C11.9427 16.5 11.8802 16.487 11.8125 16.4609L8.27344 15.0156L6.38281 17.3203C6.28906 17.4401 6.16146 17.5 6 17.5C5.93229 17.5 5.875 17.4896 5.82812 17.4688C5.72916 17.4323 5.64974 17.3711 5.58984 17.2852C5.52995 17.1992 5.5 17.1042 5.5 17V14.2734L12.25 6L3.89844 13.2266L0.812498 11.9609C0.61979 11.888 0.515623 11.7448 0.499998 11.5312C0.489582 11.3229 0.572915 11.1693 0.749998 11.0703L13.75 3.57031C13.8281 3.52344 13.9115 3.5 14 3.5C14.1042 3.5 14.1979 3.52865 14.2812 3.58594Z" fill="#3C3C3C" />
</svg>