<svg width="10" height="21" viewBox="0 0 10 21" fill="none" xmlns="http://www.w3.org/2000/svg">
  <path d="M9.42897 13.0852C9.42897 13.9976 9.13261 14.7833 8.53989 15.4423C7.94716 16.1013 7.17721 16.5083 6.23005 16.6633V18.2288C6.23005 18.3123 6.20324 18.3808 6.14963 18.4345C6.09601 18.4882 6.02751 18.515 5.94411 18.515H4.73781C4.66037 18.515 4.59335 18.4867 4.53676 18.43C4.48017 18.3734 4.45187 18.3063 4.45187 18.2288V16.6633C4.05871 16.6097 3.67895 16.5172 3.31259 16.386C2.94623 16.2548 2.64391 16.1221 2.40563 15.988C2.16735 15.8538 1.94694 15.7107 1.7444 15.5586C1.54186 15.4065 1.40336 15.2947 1.3289 15.2231C1.25444 15.1516 1.20231 15.0979 1.17253 15.0621C1.07126 14.9369 1.0653 14.8146 1.15466 14.6954L2.07502 13.4877C2.11672 13.4281 2.18522 13.3923 2.28053 13.3804C2.36989 13.3685 2.44137 13.3953 2.49499 13.4609C2.49499 13.4609 2.50094 13.4669 2.51286 13.4788C3.186 14.0692 3.90978 14.4419 4.6842 14.597C4.90461 14.6447 5.12502 14.6685 5.34543 14.6685C5.82795 14.6685 6.25239 14.5403 6.61874 14.2839C6.9851 14.0275 7.16828 13.6637 7.16828 13.1926C7.16828 13.0256 7.1236 12.8675 7.03425 12.7185C6.94489 12.5694 6.84511 12.4441 6.7349 12.3427C6.6247 12.2414 6.45046 12.1296 6.21218 12.0073C5.97389 11.885 5.77731 11.7896 5.62243 11.7211C5.46755 11.6525 5.22927 11.5556 4.90759 11.4303C4.67526 11.3349 4.49208 11.2604 4.35805 11.2067C4.22402 11.153 4.04084 11.074 3.80851 10.9696C3.57619 10.8653 3.39003 10.7728 3.25004 10.6923C3.11005 10.6118 2.94176 10.506 2.74518 10.3748C2.5486 10.2436 2.38925 10.1169 2.26713 9.99461C2.14501 9.87235 2.01545 9.72625 1.87843 9.55628C1.74142 9.38632 1.63569 9.21338 1.56122 9.03746C1.48676 8.86153 1.42421 8.66325 1.37358 8.44259C1.32294 8.22194 1.29762 7.98936 1.29762 7.74486C1.29762 6.92189 1.58952 6.2003 2.17331 5.58009C2.7571 4.95989 3.51662 4.56033 4.45187 4.38142V2.77127C4.45187 2.69374 4.48017 2.62665 4.53676 2.57C4.59335 2.51334 4.66037 2.48502 4.73781 2.48502H5.94411C6.02751 2.48502 6.09601 2.51185 6.14963 2.56552C6.20324 2.6192 6.23005 2.68778 6.23005 2.77127V4.34564C6.5696 4.38142 6.89872 4.45 7.21742 4.55138C7.53613 4.65276 7.79526 4.75265 7.99482 4.85105C8.19438 4.94945 8.38351 5.06127 8.56222 5.1865C8.74094 5.31174 8.8571 5.39821 8.91071 5.44591C8.96432 5.49362 9.009 5.53537 9.04474 5.57115C9.14601 5.67849 9.16091 5.7918 9.08942 5.91107L8.36564 7.21709C8.31799 7.30654 8.24948 7.35425 8.16012 7.36021C8.07673 7.3781 7.99631 7.35723 7.91886 7.29759C7.90099 7.2797 7.85781 7.24392 7.7893 7.19025C7.72079 7.13658 7.60463 7.05756 7.44081 6.9532C7.27699 6.84884 7.10275 6.75342 6.91808 6.66695C6.73342 6.58048 6.51152 6.50295 6.25239 6.43437C5.99325 6.36579 5.73859 6.3315 5.4884 6.3315C4.92248 6.3315 4.46081 6.45972 4.10339 6.71615C3.74596 6.97258 3.56725 7.30356 3.56725 7.70908C3.56725 7.86413 3.59257 8.00726 3.64321 8.13845C3.69384 8.26965 3.78171 8.39339 3.9068 8.50968C4.0319 8.62597 4.14955 8.72437 4.25976 8.80488C4.36996 8.88539 4.53676 8.97782 4.76015 9.08218C4.98354 9.18655 5.16374 9.26705 5.30075 9.32371C5.43776 9.38036 5.64626 9.46236 5.92624 9.5697C6.24196 9.68897 6.48322 9.7829 6.65002 9.85148C6.81681 9.92006 7.04318 10.0244 7.32912 10.1646C7.61506 10.3047 7.83993 10.4314 8.00375 10.5447C8.16757 10.658 8.35224 10.8071 8.55776 10.992C8.76327 11.1769 8.92114 11.3662 9.03134 11.56C9.14155 11.7538 9.23537 11.982 9.31281 12.2444C9.39025 12.5067 9.42897 12.787 9.42897 13.0852Z" fill="#3C3C3C" />
</svg>