<svg width="20" height="33" viewBox="0 0 20 33" fill="none" xmlns="http://www.w3.org/2000/svg">
  <path d="M13.3621 14.8307C13.3621 14.8307 13.5854 14.6075 14.0318 14.1611C14.4782 13.7146 14.7014 12.8605 14.7014 11.5986C14.7014 10.3367 14.255 9.25928 13.3621 8.36642C12.4693 7.47356 11.3919 7.02713 10.13 7.02713C8.86809 7.02713 7.79071 7.47356 6.89785 8.36642C6.00499 9.25928 5.55857 10.3367 5.55857 11.5986C5.55857 12.8605 6.00499 13.9378 6.89785 14.8307C7.79071 15.7236 8.86809 16.17 10.13 16.17C11.3919 16.17 12.4693 15.7236 13.3621 14.8307ZM19.2729 11.5986C19.2729 12.8962 19.0764 13.9617 18.6836 14.795L12.1836 28.6164C11.9931 29.0093 11.7104 29.3188 11.3354 29.545C10.9604 29.7712 10.5586 29.8843 10.13 29.8843C9.70142 29.8843 9.29964 29.7712 8.92464 29.545C8.54964 29.3188 8.27285 29.0093 8.09428 28.6164L1.57642 14.795C1.18357 13.9617 0.987137 12.8962 0.987137 11.5986C0.987137 9.07475 1.87999 6.91999 3.66571 5.13428C5.45142 3.34856 7.60618 2.4557 10.13 2.4557C12.6538 2.4557 14.8086 3.34856 16.5943 5.13428C18.38 6.91999 19.2729 9.07475 19.2729 11.5986Z" fill="#A33D5F" />
</svg>