<svg width="17" height="21" viewBox="0 0 17 21" fill="none" xmlns="http://www.w3.org/2000/svg">
  <path d="M14.8117 10.4999L16.1989 11.857C16.3999 12.0446 16.4669 12.2792 16.3999 12.5606C16.3195 12.8354 16.1453 13.0063 15.8772 13.0733L13.9874 13.5558L14.5202 15.4255C14.6006 15.7002 14.5369 15.9348 14.3292 16.1291C14.1348 16.3369 13.9003 16.4005 13.6255 16.3201L11.7558 15.7873L11.2733 17.6771C11.2063 17.9452 11.0355 18.1194 10.7607 18.1998C10.6803 18.2132 10.6166 18.2199 10.5697 18.2199C10.362 18.2199 10.1911 18.1462 10.057 17.9988L8.70002 16.6116L7.34299 17.9988C7.15535 18.1998 6.9208 18.2669 6.63934 18.1998C6.36458 18.1261 6.1937 17.9519 6.12668 17.6771L5.64418 15.7873L3.7745 16.3201C3.49974 16.4005 3.26519 16.3369 3.07085 16.1291C2.86311 15.9348 2.79944 15.7002 2.87986 15.4255L3.41262 13.5558L1.52283 13.0733C1.25477 13.0063 1.08054 12.8354 1.00012 12.5606C0.933107 12.2792 1.00012 12.0446 1.20116 11.857L2.58835 10.4999L1.20116 9.14292C1.00012 8.95528 0.933107 8.72073 1.00012 8.43927C1.08054 8.16452 1.25477 7.99363 1.52283 7.92662L3.41262 7.44412L2.87986 5.57443C2.79944 5.29967 2.86311 5.06512 3.07085 4.87078C3.26519 4.66304 3.49974 4.59938 3.7745 4.67979L5.64418 5.21255L6.12668 3.32276C6.1937 3.04801 6.36458 2.87712 6.63934 2.81011C6.9141 2.72969 7.14865 2.79335 7.34299 3.0011L8.70002 4.39834L10.057 3.0011C10.2514 2.80005 10.4859 2.73639 10.7607 2.81011C11.0355 2.87712 11.2063 3.04801 11.2733 3.32276L11.7558 5.21255L13.6255 4.67979C13.9003 4.59938 14.1348 4.66304 14.3292 4.87078C14.5369 5.06512 14.6006 5.29967 14.5202 5.57443L13.9874 7.44412L15.8772 7.92662C16.1453 7.99363 16.3195 8.16452 16.3999 8.43927C16.4669 8.72073 16.3999 8.95528 16.1989 9.14292L14.8117 10.4999Z" fill="#3C3C3C" />
</svg>