<svg width="25" height="31" viewBox="0 0 25 31" fill="none" xmlns="http://www.w3.org/2000/svg">
  <path d="M24.2957 20.9289C24.2957 21.2303 24.2399 21.6237 24.1283 22.1092C24.0167 22.5947 23.8995 22.9769 23.7767 23.2559C23.5424 23.814 22.8616 24.4055 21.7343 25.0305C20.6852 25.5997 19.6473 25.8843 18.6205 25.8843C18.3192 25.8843 18.0234 25.8647 17.7332 25.8257C17.443 25.7866 17.1222 25.7169 16.7706 25.6164C16.419 25.516 16.1568 25.4351 15.9838 25.3737C15.8108 25.3123 15.5011 25.1979 15.0546 25.0305C14.6082 24.8631 14.3348 24.7626 14.2343 24.7291C13.1406 24.3385 12.164 23.8753 11.3046 23.3396C9.88723 22.4579 8.41402 21.2526 6.885 19.7236C5.35599 18.1945 4.15063 16.7213 3.26893 15.3039C2.73322 14.4445 2.27005 13.468 1.87942 12.3742C1.84594 12.2738 1.74549 12.0003 1.57808 11.5539C1.41067 11.1075 1.29628 10.7978 1.23489 10.6248C1.17351 10.4518 1.09259 10.1895 0.992146 9.83796C0.8917 9.4864 0.821945 9.16553 0.782883 8.87535C0.74382 8.58517 0.724289 8.28941 0.724289 7.98807C0.724289 6.96129 1.00889 5.92334 1.57808 4.87423C2.20308 3.747 2.7946 3.0662 3.35264 2.83182C3.63165 2.70905 4.01391 2.59187 4.4994 2.48026C4.98489 2.36865 5.37831 2.31285 5.67965 2.31285C5.8359 2.31285 5.95308 2.32959 6.03121 2.36307C6.2321 2.43004 6.52786 2.85415 6.91849 3.6354C7.04125 3.84745 7.20866 4.14879 7.42072 4.53941C7.63277 4.93004 7.82808 5.28439 8.00665 5.60247C8.18523 5.92055 8.35822 6.2191 8.52563 6.49812C8.55911 6.54276 8.65677 6.68227 8.8186 6.91664C8.98043 7.15102 9.1004 7.34912 9.17853 7.51095C9.25665 7.67278 9.29572 7.83182 9.29572 7.98807C9.29572 8.21129 9.13668 8.4903 8.8186 8.82513C8.50052 9.15995 8.15453 9.46687 7.78065 9.74589C7.40677 10.0249 7.06078 10.3207 6.7427 10.6332C6.42462 10.9457 6.26558 11.2024 6.26558 11.4033C6.26558 11.5037 6.29349 11.6293 6.34929 11.7799C6.40509 11.9306 6.45253 12.045 6.49159 12.1231C6.53065 12.2012 6.60878 12.3352 6.72596 12.5249C6.84315 12.7146 6.90732 12.8207 6.91849 12.843C7.7667 14.372 8.73768 15.6834 9.83143 16.7771C10.9252 17.8709 12.2366 18.8419 13.7656 19.6901C13.7879 19.7012 13.8939 19.7654 14.0837 19.8826C14.2734 19.9998 14.4073 20.0779 14.4854 20.117C14.5636 20.156 14.678 20.2035 14.8286 20.2593C14.9793 20.3151 15.1049 20.343 15.2053 20.343C15.4062 20.343 15.6629 20.1839 15.9754 19.8659C16.2879 19.5478 16.5837 19.2018 16.8627 18.8279C17.1417 18.454 17.4486 18.108 17.7834 17.79C18.1183 17.4719 18.3973 17.3128 18.6205 17.3128C18.7767 17.3128 18.9358 17.3519 19.0976 17.43C19.2594 17.5082 19.4575 17.6281 19.6919 17.79C19.9263 17.9518 20.0658 18.0495 20.1104 18.0829C20.3895 18.2503 20.688 18.4233 21.0061 18.6019C21.3242 18.7805 21.6785 18.9758 22.0692 19.1878C22.4598 19.3999 22.7611 19.5673 22.9732 19.6901C23.7544 20.0807 24.1785 20.3765 24.2455 20.5774C24.279 20.6555 24.2957 20.7727 24.2957 20.9289Z" fill="#A33D5F" />
</svg>