<svg width="17" height="21" viewBox="0 0 17 21" fill="none" xmlns="http://www.w3.org/2000/svg">
  <path d="M12.1791 12.2993C11.9311 13.1102 11.4687 13.7635 10.7919 14.2594C10.115 14.7554 9.35108 15.0033 8.5 15.0033C7.64892 15.0033 6.88496 14.7554 6.20812 14.2594C5.53128 13.7635 5.06889 13.1102 4.82094 12.2993C4.76733 12.1318 4.78073 11.9693 4.86114 11.8118C4.94156 11.6543 5.06889 11.5487 5.24312 11.4951C5.41066 11.4415 5.57317 11.4549 5.73065 11.5353C5.88813 11.6158 5.99368 11.7431 6.04729 11.9173C6.21483 12.4534 6.52476 12.8873 6.97711 13.2191C7.42945 13.5508 7.93708 13.7166 8.5 13.7166C9.06291 13.7166 9.57055 13.5508 10.0229 13.2191C10.4752 12.8873 10.7852 12.4534 10.9527 11.9173C11.0063 11.7431 11.1135 11.6158 11.2744 11.5353C11.4352 11.4549 11.5994 11.4415 11.7669 11.4951C11.9345 11.5487 12.0584 11.6543 12.1389 11.8118C12.2193 11.9693 12.2327 12.1318 12.1791 12.2993ZM6.83638 7.01692C6.83638 7.01692 6.8992 7.07975 7.02486 7.2054C7.15051 7.33105 7.21333 7.57146 7.21333 7.92664C7.21333 8.28181 7.08768 8.58505 6.83638 8.83635C6.58508 9.08765 6.28184 9.2133 5.92667 9.2133C5.57149 9.2133 5.26825 9.08765 5.01695 8.83635C4.76565 8.58505 4.64 8.28181 4.64 7.92664C4.64 7.57146 4.76565 7.26823 5.01695 7.01692C5.26825 6.76562 5.57149 6.63997 5.92667 6.63997C6.28184 6.63997 6.58508 6.76562 6.83638 7.01692ZM11.983 7.01692C11.983 7.01692 12.0459 7.07975 12.1715 7.2054C12.2972 7.33105 12.36 7.57146 12.36 7.92664C12.36 8.28181 12.2343 8.58505 11.983 8.83635C11.7317 9.08765 11.4285 9.2133 11.0733 9.2133C10.7182 9.2133 10.4149 9.08765 10.1636 8.83635C9.91232 8.58505 9.78666 8.28181 9.78666 7.92664C9.78666 7.57146 9.91232 7.26823 10.1636 7.01692C10.4149 6.76562 10.7182 6.63997 11.0733 6.63997C11.4285 6.63997 11.7317 6.76562 11.983 7.01692ZM14.4207 12.9979C14.4207 12.9979 14.5061 12.7994 14.677 12.4023C14.8479 12.0053 14.9333 11.3712 14.9333 10.5C14.9333 9.62879 14.7624 8.79614 14.4207 8.00203C14.0789 7.20791 13.6215 6.52437 13.0486 5.9514C12.4756 5.37843 11.7921 4.92106 10.9979 4.57929C10.2038 4.23752 9.37118 4.06664 8.5 4.06664C7.62882 4.06664 6.79617 4.23752 6.00206 4.57929C5.20794 4.92106 4.5244 5.37843 3.95143 5.9514C3.37846 6.52437 2.92109 7.20791 2.57932 8.00203C2.23755 8.79614 2.06667 9.62879 2.06667 10.5C2.06667 11.3712 2.23755 12.2038 2.57932 12.9979C2.92109 13.792 3.37846 14.4756 3.95143 15.0485C4.5244 15.6215 5.20794 16.0789 6.00206 16.4206C6.79617 16.7624 7.62882 16.9333 8.5 16.9333C9.37118 16.9333 10.2038 16.7624 10.9979 16.4206C11.7921 16.0789 12.4756 15.6215 13.0486 15.0485C13.6215 14.4756 14.0789 13.792 14.4207 12.9979ZM15.1846 6.62489C15.1846 6.62489 15.3572 6.92059 15.7023 7.51199C16.0474 8.10339 16.22 9.09938 16.22 10.5C16.22 11.9006 15.8749 13.1923 15.1846 14.375C14.4944 15.5578 13.5579 16.4944 12.3751 17.1846C11.1923 17.8748 9.90059 18.22 8.5 18.22C7.09941 18.22 5.80772 17.8748 4.62492 17.1846C3.44213 16.4944 2.50561 15.5578 1.81536 14.375C1.12512 13.1923 0.779999 11.9006 0.779999 10.5C0.779999 9.09938 1.12512 7.80769 1.81536 6.62489C2.50561 5.4421 3.44213 4.50558 4.62492 3.81534C5.80772 3.12509 7.09941 2.77997 8.5 2.77997C9.90059 2.77997 11.1923 3.12509 12.3751 3.81534C13.5579 4.50558 14.4944 5.4421 15.1846 6.62489Z" fill="#3C3C3C" />
</svg>