<svg width="28" height="27" viewBox="0 0 28 27" fill="none" xmlns="http://www.w3.org/2000/svg">
  <path d="M26.1038 0.329521C26.4229 0.561665 26.5535 0.871187 26.4955 1.25809L22.7812 23.5438C22.7328 23.8243 22.5781 24.0419 22.3169 24.1967C22.1815 24.2741 22.0316 24.3128 21.8671 24.3128C21.7607 24.3128 21.6447 24.2886 21.5189 24.2402L14.9464 21.5561L11.4352 25.8362C11.2611 26.0587 11.0241 26.1699 10.7243 26.1699C10.5985 26.1699 10.4921 26.1506 10.4051 26.1119C10.2213 26.0442 10.0738 25.9305 9.96257 25.7709C9.85134 25.6113 9.79572 25.4348 9.79572 25.2414V20.1777L22.3314 4.81278L6.82139 18.2335L1.09036 15.8831C0.732475 15.7477 0.539022 15.4817 0.510004 15.0851C0.490659 14.6982 0.645421 14.4129 0.97429 14.2291L25.1171 0.300503C25.2622 0.213449 25.417 0.169922 25.5814 0.169922C25.7749 0.169922 25.949 0.223122 26.1038 0.329521Z" fill="#A33D5F" />
</svg>