<svg width="17" height="19" viewBox="0 0 17 19" fill="none" xmlns="http://www.w3.org/2000/svg">
  <path d="M10.5821 11.318C10.5821 11.318 10.7076 11.1925 10.9585 10.9414C11.2095 10.6902 11.335 10.2098 11.335 9.49995C11.335 8.79013 11.084 8.1841 10.5821 7.68187C10.0802 7.17964 9.47452 6.92852 8.76515 6.92852C8.05577 6.92852 7.45013 7.17964 6.94821 7.68187C6.44629 8.1841 6.19533 8.79013 6.19533 9.49995C6.19533 10.2098 6.44629 10.8158 6.94821 11.318C7.45013 11.8203 8.05577 12.0714 8.76515 12.0714C9.47452 12.0714 10.0802 11.8203 10.5821 11.318ZM11.5658 6.69749C11.5658 6.69749 11.7582 6.89001 12.1431 7.27506C12.5279 7.6601 12.7203 8.40173 12.7203 9.49995C12.7203 10.5982 12.3355 11.5323 11.5658 12.3024C10.7962 13.0725 9.86267 13.4575 8.76515 13.4575C7.66762 13.4575 6.73406 13.0725 5.96445 12.3024C5.19485 11.5323 4.81004 10.5982 4.81004 9.49995C4.81004 8.40173 5.19485 7.46758 5.96445 6.69749C6.73406 5.9274 7.66762 5.54236 8.76515 5.54236C9.86267 5.54236 10.7962 5.9274 11.5658 6.69749ZM13.5334 4.72874C13.5334 4.72874 13.5785 4.77394 13.6689 4.86435C13.7592 4.95475 13.8044 5.12718 13.8044 5.38164C13.8044 5.63611 13.7141 5.85374 13.5334 6.03455C13.3527 6.21535 13.1352 6.30575 12.8809 6.30575C12.6266 6.30575 12.4091 6.21535 12.2284 6.03455C12.0477 5.85374 11.9573 5.63611 11.9573 5.38164C11.9573 5.12718 12.0477 4.90955 12.2284 4.72874C12.4091 4.54794 12.6266 4.45754 12.8809 4.45754C13.1352 4.45754 13.3527 4.54794 13.5334 4.72874ZM9.53308 3.1668C9.53308 3.1668 9.4168 3.16764 9.18425 3.16931C8.95169 3.17099 8.81199 3.17182 8.76515 3.17182C8.7183 3.17182 8.46233 3.17015 7.99722 3.1668C7.53211 3.16345 7.17909 3.16345 6.93817 3.1668C6.69725 3.17015 6.37435 3.18019 5.96947 3.19693C5.56459 3.21368 5.21994 3.24716 4.93552 3.29738C4.6511 3.3476 4.41185 3.40955 4.21778 3.48321C3.88317 3.61714 3.58871 3.81133 3.33441 4.0658C3.0801 4.32026 2.88603 4.6149 2.75218 4.94972C2.67857 5.14392 2.61666 5.38332 2.56647 5.66792C2.51628 5.95251 2.48282 6.29738 2.46609 6.70251C2.44936 7.10765 2.43932 7.43075 2.43597 7.67182C2.43263 7.91289 2.43263 8.26613 2.43597 8.73153C2.43932 9.19693 2.44099 9.45307 2.44099 9.49995C2.44099 9.54682 2.43932 9.80296 2.43597 10.2684C2.43263 10.7338 2.43263 11.087 2.43597 11.3281C2.43932 11.5691 2.44936 11.8922 2.46609 12.2974C2.48282 12.7025 2.51628 13.0474 2.56647 13.332C2.61666 13.6166 2.67857 13.856 2.75218 14.0502C2.88603 14.385 3.0801 14.6796 3.33441 14.9341C3.58871 15.1886 3.88317 15.3828 4.21778 15.5167C4.41185 15.5903 4.6511 15.6523 4.93552 15.7025C5.21994 15.7527 5.56459 15.7862 5.96947 15.803C6.37435 15.8197 6.69725 15.8297 6.93817 15.8331C7.17909 15.8364 7.53211 15.8364 7.99722 15.8331C8.46233 15.8297 8.7183 15.8281 8.76515 15.8281C8.81199 15.8281 9.06797 15.8297 9.53308 15.8331C9.99819 15.8364 10.3512 15.8364 10.5921 15.8331C10.833 15.8297 11.1559 15.8197 11.5608 15.803C11.9657 15.7862 12.3104 15.7527 12.5948 15.7025C12.8792 15.6523 13.1184 15.5903 13.3125 15.5167C13.6471 15.3828 13.9416 15.1886 14.1959 14.9341C14.4502 14.6796 14.6443 14.385 14.7781 14.0502C14.8517 13.856 14.9136 13.6166 14.9638 13.332C15.014 13.0474 15.0475 12.7025 15.0642 12.2974C15.0809 11.8922 15.091 11.5691 15.0943 11.3281C15.0977 11.087 15.0977 10.7338 15.0943 10.2684C15.091 9.80296 15.0893 9.54682 15.0893 9.49995C15.0893 9.45307 15.091 9.19693 15.0943 8.73153C15.0977 8.26613 15.0977 7.91289 15.0943 7.67182C15.091 7.43075 15.0809 7.10765 15.0642 6.70251C15.0475 6.29738 15.014 5.95251 14.9638 5.66792C14.9136 5.38332 14.8517 5.14392 14.7781 4.94972C14.6443 4.6149 14.4502 4.32026 14.1959 4.0658C13.9416 3.81133 13.6471 3.61714 13.3125 3.48321C13.1184 3.40955 12.8792 3.3476 12.5948 3.29738C12.3104 3.24716 11.9657 3.21368 11.5608 3.19693C11.1559 3.18019 10.833 3.17015 10.5921 3.1668C10.3512 3.16345 9.99819 3.16345 9.53308 3.1668ZM16.4244 6.3158C16.4579 6.90508 16.4746 7.96647 16.4746 9.49995C16.4746 11.0334 16.4579 12.0948 16.4244 12.6841C16.3575 14.077 15.9426 15.1551 15.1796 15.9185C14.4167 16.6819 13.3393 17.097 11.9473 17.164C11.3584 17.1975 10.2977 17.2142 8.76515 17.2142C7.23263 17.2142 6.17191 17.1975 5.58299 17.164C4.19101 17.097 3.11356 16.6819 2.35065 15.9185C1.58773 15.1551 1.17282 14.077 1.10589 12.6841C1.07243 12.0948 1.0557 11.0334 1.0557 9.49995C1.0557 7.96647 1.07243 6.90508 1.10589 6.3158C1.17282 4.92294 1.58773 3.84481 2.35065 3.08142C3.11356 2.31803 4.19101 1.90285 5.58299 1.83589C6.17191 1.8024 7.23263 1.78566 8.76515 1.78566C10.2977 1.78566 11.3584 1.8024 11.9473 1.83589C13.3393 1.90285 14.4167 2.31803 15.1796 3.08142C15.9426 3.84481 16.3575 4.92294 16.4244 6.3158Z" fill="#FCFCFD" />
</svg>