<svg width="20" height="19" viewBox="0 0 20 19" fill="none" xmlns="http://www.w3.org/2000/svg">
  <path d="M19.5727 5.72325C19.7267 6.15182 19.2245 7.1362 18.066 8.67637C17.9053 8.89066 17.6877 9.17526 17.4131 9.53017C17.1452 9.87169 16.9611 10.1128 16.8606 10.2534C16.7602 10.394 16.6581 10.5597 16.5543 10.7506C16.4505 10.9414 16.4103 11.0821 16.4337 11.1725C16.4572 11.2629 16.5007 11.3784 16.5643 11.519C16.6279 11.6596 16.7368 11.8036 16.8908 11.9509C17.0448 12.0982 17.2356 12.2757 17.4633 12.4833C17.4901 12.4967 17.5068 12.5101 17.5135 12.5235C18.4577 13.4007 19.0972 14.1407 19.4321 14.7433C19.4522 14.7768 19.4739 14.8187 19.4974 14.8689C19.5208 14.9191 19.5442 15.0078 19.5677 15.1351C19.5911 15.2623 19.5894 15.3762 19.5627 15.4766C19.5359 15.577 19.4522 15.6691 19.3115 15.7528C19.1709 15.8365 18.9734 15.8784 18.7189 15.8784L16.1475 15.9186C15.9868 15.952 15.7993 15.9353 15.585 15.8683C15.3707 15.8014 15.1966 15.7277 15.0626 15.6474L14.8618 15.5268C14.6609 15.3862 14.4265 15.1719 14.1586 14.884C13.8908 14.596 13.6614 14.3365 13.4706 14.1055C13.2797 13.8745 13.0755 13.6803 12.8579 13.5229C12.6402 13.3655 12.451 13.3137 12.2903 13.3672C12.2702 13.3739 12.2435 13.3856 12.21 13.4024C12.1765 13.4191 12.1196 13.4677 12.0392 13.548C11.9589 13.6284 11.8869 13.7272 11.8233 13.8443C11.7596 13.9615 11.7027 14.1356 11.6525 14.3667C11.6023 14.5977 11.5805 14.8572 11.5872 15.1451C11.5872 15.2456 11.5755 15.3376 11.552 15.4214C11.5286 15.5051 11.5035 15.567 11.4767 15.6072L11.4365 15.6574C11.316 15.7846 11.1385 15.8583 10.9042 15.8784H9.74903C9.27359 15.9052 8.78475 15.8499 8.28252 15.7126C7.78028 15.5754 7.33999 15.3979 6.96165 15.1803C6.5833 14.9626 6.23843 14.7417 5.92705 14.5173C5.61566 14.293 5.37961 14.1005 5.2189 13.9398L4.96778 13.6987C4.90082 13.6317 4.80874 13.5313 4.69156 13.3974C4.57437 13.2634 4.33497 12.9587 3.97336 12.4833C3.61176 12.0078 3.25685 11.5023 2.90863 10.9666C2.56042 10.4308 2.15026 9.72437 1.67816 8.84713C1.20606 7.9699 0.769123 7.05919 0.367337 6.11499C0.327159 6.00785 0.307069 5.91745 0.307069 5.84378C0.307069 5.77012 0.317114 5.71655 0.337203 5.68307L0.377382 5.6228C0.477828 5.49557 0.668676 5.43196 0.949926 5.43196L3.70216 5.41187C3.78252 5.42526 3.85952 5.44702 3.93319 5.47716C4.00685 5.50729 4.06042 5.53575 4.0939 5.56254L4.14412 5.59267C4.25127 5.66633 4.33162 5.77347 4.38519 5.9141C4.51912 6.24892 4.67314 6.59546 4.84725 6.95372C5.02136 7.31198 5.15863 7.58486 5.25908 7.77236L5.41979 8.06365C5.61399 8.46544 5.80149 8.81365 5.98229 9.10829C6.1631 9.40294 6.32548 9.63229 6.46946 9.79635C6.61343 9.96041 6.75238 10.0893 6.88631 10.1831C7.02024 10.2768 7.13408 10.3237 7.22783 10.3237C7.32158 10.3237 7.41198 10.307 7.49903 10.2735C7.51243 10.2668 7.52917 10.25 7.54926 10.2232C7.56935 10.1965 7.60952 10.1228 7.66979 10.0023C7.73006 9.88173 7.77526 9.72437 7.8054 9.53017C7.83553 9.33597 7.86734 9.06477 7.90082 8.71655C7.9343 8.36834 7.9343 7.94981 7.90082 7.46097C7.88743 7.19312 7.85729 6.9487 7.81042 6.72771C7.76354 6.50673 7.71667 6.35271 7.66979 6.26566L7.60952 6.14512C7.44211 5.91745 7.15752 5.77347 6.75573 5.7132C6.66868 5.69981 6.68542 5.61946 6.80595 5.47213C6.9131 5.3449 7.04033 5.24446 7.18765 5.17079C7.54256 4.99669 8.34278 4.91633 9.58832 4.92972C10.1374 4.93642 10.5894 4.97995 10.9443 5.0603C11.0783 5.09379 11.1904 5.13899 11.2808 5.19591C11.3712 5.25283 11.4399 5.33318 11.4868 5.43698C11.5336 5.54077 11.5688 5.64791 11.5922 5.75841C11.6157 5.8689 11.6274 6.02124 11.6274 6.21544C11.6274 6.40963 11.624 6.59378 11.6173 6.76789C11.6106 6.942 11.6023 7.17805 11.5922 7.47604C11.5822 7.77403 11.5772 8.05026 11.5772 8.30472C11.5772 8.37838 11.5738 8.51901 11.5671 8.7266C11.5604 8.93419 11.5587 9.0949 11.5621 9.20874C11.5654 9.32258 11.5772 9.45818 11.5972 9.61555C11.6173 9.77291 11.6558 9.90349 11.7128 10.0073C11.7697 10.1111 11.845 10.1931 11.9388 10.2534C11.9923 10.2668 12.0493 10.2802 12.1095 10.2936C12.1698 10.307 12.2568 10.2701 12.3707 10.1831C12.4845 10.096 12.6118 9.9805 12.7524 9.83653C12.893 9.69256 13.0671 9.46823 13.2747 9.16354C13.4823 8.85885 13.71 8.49892 13.9577 8.08374C14.3595 7.38731 14.7178 6.63396 15.0325 5.8237C15.0593 5.75673 15.0928 5.69814 15.133 5.64791C15.1731 5.59769 15.21 5.56254 15.2435 5.54245L15.2836 5.51231C15.297 5.50562 15.3138 5.49724 15.3339 5.4872C15.3539 5.47716 15.3975 5.46711 15.4644 5.45707C15.5314 5.44702 15.5984 5.44535 15.6653 5.45204L18.5582 5.43196C18.8193 5.39847 19.0336 5.40684 19.201 5.45707C19.3685 5.50729 19.4722 5.56254 19.5124 5.6228L19.5727 5.72325Z" fill="#FCFCFD" />
</svg>