<svg width="10" height="14" viewBox="0 0 10 14" fill="none" xmlns="http://www.w3.org/2000/svg">
  <path d="M9.72287 10.649C9.72287 11.1761 9.5719 11.6283 9.26996 12.0056C8.96801 12.3828 8.60447 12.5714 8.17933 12.5714H1.99068C1.56555 12.5714 1.202 12.3828 0.90006 12.0056C0.598116 11.6283 0.447144 11.1761 0.447144 10.649C0.447144 10.2379 0.467676 9.84978 0.50874 9.48464C0.549805 9.1195 0.625895 8.75194 0.73701 8.38196C0.848126 8.01198 0.989436 7.6952 1.16094 7.43162C1.33244 7.16804 1.55951 6.95283 1.84213 6.78598C2.12475 6.61912 2.44964 6.5357 2.8168 6.5357C3.44968 7.15474 4.20575 7.46427 5.08501 7.46427C5.96427 7.46427 6.72034 7.15474 7.35321 6.5357C7.72038 6.5357 8.04527 6.61912 8.32789 6.78598C8.61051 6.95283 8.83757 7.16804 9.00908 7.43162C9.18058 7.6952 9.32189 8.01198 9.43301 8.38196C9.54412 8.75194 9.62021 9.1195 9.66128 9.48464C9.70234 9.84978 9.72287 10.2379 9.72287 10.649ZM7.05248 2.24468C7.05248 2.24468 7.18835 2.3807 7.4601 2.65275C7.73185 2.92479 7.86773 3.4453 7.86773 4.21427C7.86773 4.98324 7.59598 5.63977 7.05248 6.18386C6.50898 6.72794 5.85315 6.99998 5.08501 6.99998C4.31686 6.99998 3.66104 6.72794 3.11754 6.18386C2.57404 5.63977 2.30229 4.98324 2.30229 4.21427C2.30229 3.4453 2.57404 2.78877 3.11754 2.24468C3.66104 1.7006 4.31686 1.42855 5.08501 1.42855C5.85315 1.42855 6.50898 1.7006 7.05248 2.24468Z" fill="#3C3C3C" />
</svg>