<svg width="15" height="20" viewBox="0 0 15 20" fill="none" xmlns="http://www.w3.org/2000/svg">
  <path d="M14.9343 13.6474C14.9343 13.8382 14.8989 14.0874 14.8283 14.3949C14.7576 14.7023 14.6833 14.9444 14.6056 15.1211C14.4572 15.4746 14.026 15.8492 13.3121 16.245C12.6476 16.6055 11.9903 16.7858 11.34 16.7858C11.1491 16.7858 10.9618 16.7734 10.778 16.7487C10.5942 16.7239 10.391 16.6797 10.1684 16.6161C9.94572 16.5525 9.77961 16.5013 9.67005 16.4624C9.56049 16.4235 9.36434 16.3511 9.0816 16.245C8.79886 16.139 8.62568 16.0754 8.56207 16.0542C7.86936 15.8068 7.25087 15.5134 6.7066 15.1742C5.80891 14.6158 4.87587 13.8524 3.90749 12.884C2.93911 11.9156 2.17572 10.9826 1.61731 10.0849C1.27803 9.5406 0.984687 8.92211 0.737292 8.22941C0.716086 8.16579 0.65247 7.99261 0.546443 7.70987C0.440417 7.42714 0.367965 7.23099 0.329088 7.12143C0.290212 7.01186 0.238966 6.84576 0.17535 6.6231C0.111734 6.40044 0.0675557 6.19723 0.0428162 6.01345C0.0180766 5.82967 0.00570679 5.64235 0.00570679 5.4515C0.00570679 4.80121 0.185952 4.14384 0.546443 3.47941C0.942277 2.76549 1.3169 2.33432 1.67033 2.18588C1.84704 2.10813 2.08913 2.03391 2.39661 1.96322C2.70409 1.89254 2.95325 1.8572 3.1441 1.8572C3.24306 1.8572 3.31728 1.8678 3.36676 1.889C3.49399 1.93141 3.6813 2.20002 3.9287 2.69481C4.00645 2.82911 4.11248 3.01996 4.24678 3.26735C4.38108 3.51475 4.50478 3.73917 4.61787 3.94062C4.73097 4.14207 4.84053 4.33115 4.94655 4.50786C4.96776 4.53614 5.02961 4.62449 5.1321 4.77293C5.23459 4.92137 5.31058 5.04683 5.36006 5.14933C5.40954 5.25182 5.43428 5.35255 5.43428 5.4515C5.43428 5.59287 5.33355 5.76958 5.1321 5.98164C4.93065 6.19369 4.71153 6.38807 4.47474 6.56479C4.23794 6.7415 4.01882 6.92881 3.81737 7.12673C3.61592 7.32464 3.51519 7.48722 3.51519 7.61445C3.51519 7.67807 3.53286 7.75759 3.56821 7.85301C3.60355 7.94843 3.63359 8.02089 3.65833 8.07036C3.68307 8.11984 3.73255 8.20467 3.80677 8.32483C3.88099 8.44499 3.92163 8.51214 3.9287 8.52628C4.4659 9.49466 5.08086 10.3252 5.77356 11.0179C6.46627 11.7106 7.29681 12.3256 8.26519 12.8628C8.27933 12.8698 8.34648 12.9105 8.46664 12.9847C8.58681 13.0589 8.67163 13.1084 8.72111 13.1331C8.77059 13.1579 8.84304 13.1879 8.93846 13.2233C9.03389 13.2586 9.11341 13.2763 9.17702 13.2763C9.30426 13.2763 9.46683 13.1756 9.66475 12.9741C9.86266 12.7727 10.05 12.5535 10.2267 12.3167C10.4034 12.0799 10.5978 11.8608 10.8098 11.6594C11.0219 11.4579 11.1986 11.3572 11.34 11.3572C11.4389 11.3572 11.5397 11.3819 11.6421 11.4314C11.7446 11.4809 11.8701 11.5569 12.0185 11.6594C12.167 11.7619 12.2553 11.8237 12.2836 11.8449C12.4603 11.9509 12.6494 12.0605 12.8509 12.1736C13.0523 12.2867 13.2767 12.4104 13.5241 12.5447C13.7715 12.679 13.9624 12.785 14.0967 12.8628C14.5915 13.1102 14.8601 13.2975 14.9025 13.4247C14.9237 13.4742 14.9343 13.5484 14.9343 13.6474Z" fill="#3C3C3C" />
</svg>