<svg width="15" height="17" viewBox="0 0 15 17" fill="none" xmlns="http://www.w3.org/2000/svg">
  <path d="M9.11304 10.7545C9.11304 10.7545 9.30873 10.5588 9.7001 10.1674C10.0915 9.77604 10.2871 9.02976 10.2871 7.92857C10.2871 6.82738 9.89578 5.88542 9.11304 5.10268C8.3303 4.31994 7.38834 3.92857 6.28715 3.92857C5.18596 3.92857 4.24399 4.31994 3.46126 5.10268C2.67852 5.88542 2.28715 6.82738 2.28715 7.92857C2.28715 9.02976 2.67852 9.97173 3.46126 10.7545C4.24399 11.5372 5.18596 11.9286 6.28715 11.9286C7.38834 11.9286 8.3303 11.5372 9.11304 10.7545ZM14.8586 15.3571C14.8586 15.6667 14.7455 15.9345 14.5193 16.1607C14.2931 16.3869 14.0252 16.5 13.7157 16.5C13.3943 16.5 13.1264 16.3869 12.9121 16.1607L9.84965 13.1071C8.78417 13.8452 7.59667 14.2143 6.28715 14.2143C5.43596 14.2143 4.62197 14.0491 3.84518 13.7187C3.0684 13.3884 2.39876 12.942 1.83626 12.3795C1.27376 11.817 0.827327 11.1473 0.49697 10.3705C0.166613 9.59375 0.00143433 8.77976 0.00143433 7.92857C0.00143433 7.07738 0.166613 6.26339 0.49697 5.48661C0.827327 4.70982 1.27376 4.04018 1.83626 3.47768C2.39876 2.91518 3.0684 2.46875 3.84518 2.13839C4.62197 1.80803 5.43596 1.64286 6.28715 1.64286C7.13834 1.64286 7.95233 1.80803 8.72911 2.13839C9.5059 2.46875 10.1755 2.91518 10.738 3.47768C11.3005 4.04018 11.747 4.70982 12.0773 5.48661C12.4077 6.26339 12.5729 7.07738 12.5729 7.92857C12.5729 9.23809 12.2038 10.4256 11.4657 11.4911L14.5282 14.5536C14.7485 14.7738 14.8586 15.0417 14.8586 15.3571Z" fill="#3C3C3C" />
</svg>